<svg id="Layer_1" data-name="Layer 1" xmlns="http://www.w3.org/2000/svg" width="206" height="206" viewBox="-10 -10 226 226">
  <defs>
    <style>
      .cls-1, .cls-2 {
        fill: none;
      }

      .cls-1 {
        stroke: #29abe2;
      }

      .cls-1, .cls-2, .cls-3 {
        stroke-miterlimit: 10;
        stroke-width: 6px;
      }

      .cls-2, .cls-3 {
        stroke: #fff;
      }
    </style>
  </defs>
  <line class="cls-1" x1="94.42" y1="206" x2="94.42" y2="180.25"/>
  <polyline class="cls-2" points="206 120.17 206 137.33 171.67 137.33 171.67 206 17.17 206 17.17 137.33 0 137.33 0 120.17"/>
  <polyline class="cls-2" points="163.08 33.92 172 34 171.67 68.67 206 68.67 206 85.83"/>
  <line class="cls-1" x1="94.42" y1="33.92" x2="94.42" y2="60.08"/>
  <line class="cls-2" x1="42.92" y1="33.92" x2="145.92" y2="33.92"/>
  <line class="cls-1" x1="146" y1="34" x2="163" y2="34"/>
  <line class="cls-1" x1="26" y1="34" x2="43" y2="34"/>
  <polyline class="cls-2" points="0 85.83 0 68.67 17.17 68.67 17 34 26 34"/>
  <polyline class="cls-2" points="172 34 171.67 0 17.17 0 17 34"/>
  <rect class="cls-3" x="85.83" y="111.58" width="17.17" height="17.17"/>
  <rect class="cls-3" x="85.83" y="60.08" width="17.17" height="17.17"/>
  <rect class="cls-3" x="85.83" y="163.08" width="17.17" height="17.17"/>
</svg>
