<svg id="Layer_1" data-name="Layer 1" xmlns="http://www.w3.org/2000/svg" width="206" height="206" viewBox="-10 -10 226 226">
  <defs>
    <style>
      .cls-1 {
        fill: none;
      }

      .cls-1, .cls-2 {
        stroke: #fff;
        stroke-miterlimit: 10;
        stroke-width: 6px;
      }
    </style>
  </defs>
  <polyline class="cls-1" points="206 120.17 206 145.92 154.5 145.92 154.5 206 0 206 0 0 154.5 0 154.5 60.08 206 60.08 206 85.83"/>
  <polyline class="cls-1" points="51.5 180.25 51.5 197.42 17.17 197.42 17.17 154.5 51.5 154.5 51.5 163.08"/>
  <polyline class="cls-1" points="51.5 17.17 51.5 8.58 17.17 8.58 17.17 51.5 51.5 51.5 51.5 34.33"/>
  <polygon class="cls-2" points="17.17 154.5 17.17 51.5 51.5 51.5 51.5 77.25 60.08 77.25 60.08 128.75 51.5 128.75 51.5 154.5 17.17 154.5"/>
  <line class="cls-2" x1="154.5" y1="145.92" x2="154.5" y2="137.33"/>
  <line class="cls-2" x1="154.5" y1="60.08" x2="154.5" y2="68.67"/>
</svg>
