<svg id="Layer_1" data-name="Layer 1" xmlns="http://www.w3.org/2000/svg" width="412" height="206" viewBox="-10 -10 432 226">
  <defs>
    <style>
      .cls-1 {
        fill: none;
        stroke: #fff;
        stroke-miterlimit: 10;
        stroke-width: 6px;
      }
    </style>
  </defs>
  <line class="cls-1" x1="51.5" y1="85.83" x2="51.5" y2="26.17"/>
  <line class="cls-1" x1="103" y1="85.83" x2="103" y2="26.17"/>
  <line class="cls-1" x1="154.5" y1="85.83" x2="154.5" y2="26.17"/>
  <line class="cls-1" x1="206" y1="85.83" x2="206" y2="26.17"/>
  <line class="cls-1" x1="257.5" y1="26.17" x2="257.5" y2="85.83"/>
  <line class="cls-1" x1="309" y1="85.83" x2="309" y2="26.17"/>
  <line class="cls-1" x1="51.5" y1="120.17" x2="51.5" y2="179.83"/>
  <line class="cls-1" x1="103" y1="120.17" x2="103" y2="179.83"/>
  <line class="cls-1" x1="154.5" y1="120.17" x2="154.5" y2="179.83"/>
  <line class="cls-1" x1="206" y1="120.17" x2="206" y2="179.83"/>
  <line class="cls-1" x1="257.5" y1="120.17" x2="257.5" y2="179.83"/>
  <line class="cls-1" x1="309" y1="120.17" x2="309" y2="179.83"/>
  <polygon class="cls-1" points="51.5 77.25 42.92 85.83 60.08 85.83 51.5 77.25"/>
  <polygon class="cls-1" points="103 77.25 94.42 85.83 111.58 85.83 103 77.25"/>
  <polygon class="cls-1" points="154.5 77.25 163.08 85.83 145.92 85.83 154.5 77.25"/>
  <polygon class="cls-1" points="206 77.25 214.58 85.83 197.42 85.83 206 77.25"/>
  <polygon class="cls-1" points="257.5 77.25 248.92 85.83 266.08 85.83 257.5 77.25"/>
  <polygon class="cls-1" points="309 77.25 300.42 85.83 317.58 85.83 309 77.25"/>
  <polyline class="cls-1" points="0 77.33 8.58 85.83 0 85.83 0 26.17 360.5 26.17 360.5 85.83 412 85.83 412 120.17 360.5 120.17 361 179.83 0 179.83 0 120.17 8.58 120.17 0 128.75"/>
  <polygon class="cls-1" points="309 128.75 300.42 120.17 317.58 120.17 309 128.75"/>
  <polygon class="cls-1" points="257.5 128.75 266.08 120.17 248.92 120.17 257.5 128.75"/>
  <polygon class="cls-1" points="214.58 120.17 206 128.75 197.42 120.17 214.58 120.17"/>
  <polygon class="cls-1" points="163.08 120.17 154.5 128.75 145.92 120.17 163.08 120.17"/>
  <polygon class="cls-1" points="103 128.75 94.42 120.17 111.58 120.17 103 128.75"/>
  <polygon class="cls-1" points="51.5 128.75 42.92 120.17 60.08 120.17 51.5 128.75"/>
  <polyline class="cls-1" points="360.5 120.17 351.92 120.17 360.5 128.75"/>
  <polyline class="cls-1" points="360.5 77.25 351.92 85.83 360.5 85.83"/>
</svg>
